<svg width="128" height="39" viewBox="0 0 128 39" fill="none" xmlns="http://www.w3.org/2000/svg">
<path fill-rule="evenodd" clip-rule="evenodd" d="M19.2966 0C29.9361 0 38.5932 8.74832 38.5932 19.5C38.5932 30.2517 29.9361 39 19.2966 39C8.65708 39 0 30.2517 0 19.5C0 8.74832 8.65708 0 19.2966 0ZM19.2966 2.20784C9.86055 2.20784 2.18481 9.96448 2.18481 19.5C2.18481 29.0355 9.86055 36.7922 19.2966 36.7922C28.7327 36.7922 36.4084 29.0355 36.4084 19.5C36.4084 9.96448 28.7327 2.20784 19.2966 2.20784ZM20.3889 5.96147C20.3889 9.3624 23.1275 12.1283 26.4929 12.1283V14.3362C24.0769 14.3362 21.9058 13.2799 20.3889 11.6071V12.8356C20.3889 16.2365 23.1275 19.0025 26.4929 19.0025V21.2103C24.0769 21.2103 21.9058 20.154 20.3889 18.4813V19.7097C20.3889 23.1106 23.1275 25.8766 26.4929 25.8766V28.0844C24.0769 28.0844 21.9058 27.0282 20.3889 25.3554V33.0382H18.2041V25.3569C16.6887 27.0282 14.5176 28.0844 12.1015 28.0844V25.8766C15.467 25.8766 18.2041 23.1106 18.2041 19.7097V18.4828C16.6887 20.154 14.5176 21.2103 12.1015 21.2103V19.0025C15.467 19.0025 18.2041 16.2365 18.2041 12.8356V11.6071C16.6887 13.2799 14.5176 14.3362 12.1015 14.3362V12.1283C15.467 12.1283 18.2041 9.3624 18.2041 5.96147H20.3889ZM123.487 23.0304L126.005 27.7167V23.0304H128V31.5342H125.943L123.487 26.8603V31.5342H121.492V23.0304H123.487ZM81.3181 23.0318C81.9039 23.0318 82.304 23.4346 82.304 24.0265V30.5393C82.304 31.1313 81.9039 31.5341 81.3181 31.5341H76.9926C76.4069 31.5341 76.0082 31.1313 76.0082 30.5393V24.0265C76.0082 23.4346 76.4069 23.0318 76.9926 23.0318H81.3181ZM98.2796 23.0302C98.8654 23.0302 99.264 23.4346 99.264 24.0265V31.5341H97.0959V29.417H95.1895V31.5341H93.0199V24.0265C93.0199 23.4346 93.4186 23.0302 94.0043 23.0302H98.2796ZM118.184 23.0318C118.77 23.0318 119.17 23.4346 119.17 24.0265V30.5393C119.17 31.1313 118.77 31.5341 118.184 31.5341H113.859C113.273 31.5341 112.874 31.1313 112.874 30.5393V24.0265C112.874 23.4346 113.273 23.0318 113.859 23.0318H118.184ZM110.553 23.0313V31.5336H108.397V23.0313H110.553ZM55.3038 23.0312L56.5758 25.4619L57.6347 23.0312H59.9671L57.6484 27.4268L59.9412 31.5335H57.548L56.3019 29.1903L55.1045 31.5335H52.8239L55.2673 27.2885L52.8862 23.0312H55.3038ZM89.9118 23.0307C90.423 23.0307 90.8581 23.4474 90.8581 23.9886V27.8815C90.8581 28.3965 90.423 28.8378 89.9118 28.8378H89.8494L90.884 31.533H88.7646L87.7178 28.8378H86.7958V31.533H84.6262V23.0307H89.9118ZM51.6729 23.031V24.8575H48.3318V26.3443H51.224V28.157H48.3318V29.6945H51.6729V31.5333H46.1759V23.031H51.6729ZM66.6645 23.0307C67.1742 23.0307 67.6109 23.4474 67.6109 23.9886V28.3596C67.6109 28.8639 67.1742 29.316 66.6645 29.316H63.6855V31.533H61.5159V23.0307H66.6645ZM71.8032 23.031V29.6945H74.484V31.5333H69.6473V23.031H71.8032ZM106.786 23.031V24.8698H104.879V31.5333H102.71V24.8698H100.802V23.031H106.786ZM79.9975 24.8706H78.2904C78.2402 24.8706 78.1778 24.9336 78.1778 25.009V29.5815C78.1778 29.6445 78.2402 29.6953 78.2904 29.6953H79.9975C80.072 29.6953 80.1344 29.6445 80.1344 29.5815V25.009C80.1344 24.9336 80.072 24.8706 79.9975 24.8706ZM116.863 24.8706H115.156C115.106 24.8706 115.044 24.9336 115.044 25.009V29.5815C115.044 29.6445 115.106 29.6953 115.156 29.6953H116.863C116.938 29.6953 117 29.6445 117 29.5815V25.009C117 24.9336 116.938 24.8706 116.863 24.8706ZM96.7962 24.7691H95.4497C95.3006 24.7691 95.1895 24.8829 95.1895 25.0213V27.5781H97.0959V25.0213C97.0959 24.8706 96.9711 24.7691 96.7962 24.7691ZM65.3302 24.8572H63.6855V27.5156H65.3302C65.3926 27.5156 65.4428 27.4525 65.4428 27.4018V24.9833C65.4428 24.9203 65.3926 24.8572 65.3302 24.8572ZM88.5896 24.8572H86.7958V27.125H88.5896C88.6398 27.125 88.7022 27.062 88.7022 27.0113V24.9833C88.7022 24.9203 88.6398 24.8572 88.5896 24.8572ZM78.9436 7.46606V10.1582H76.1517V19.9136H72.9764V10.1582H70.1846V7.46606H78.9436ZM126.576 7.4659C127.324 7.4659 127.963 8.07475 127.963 8.8681V14.566C127.963 15.3209 127.324 15.9667 126.576 15.9667H126.486L128 19.9134H124.898L123.366 15.9667H122.015V19.9134H118.839V7.4659H126.576ZM61.9661 7.46606V17.0554C61.9661 17.1476 62.0574 17.2214 62.1304 17.2214H64.4476C64.5572 17.2214 64.6484 17.1476 64.6484 17.0554V7.46606H67.8237V18.4929C67.8237 19.3047 67.203 19.9136 66.4362 19.9136H60.1951C59.4481 19.9136 58.7908 19.3047 58.7908 18.4929V7.46606H61.9661ZM53.9485 7.46667C54.8066 7.46667 55.3908 8.05553 55.3908 8.92268V18.4567C55.3908 19.3238 54.8066 19.9127 53.9485 19.9127H47.6177C46.7596 19.9127 46.1754 19.3238 46.1754 18.4567V8.92268C46.1754 8.05553 46.7596 7.46667 47.6177 7.46667H53.9485ZM87.9266 7.4656C89.2761 7.4656 90.4263 8.59104 90.4263 9.99169V17.3686C90.4263 18.7892 89.2761 19.9131 87.9266 19.9131H81.3021V7.4656H87.9266ZM101.49 7.46667C102.348 7.46667 102.933 8.05553 102.933 8.92268V18.4567C102.933 19.3238 102.348 19.9127 101.49 19.9127H95.1595C94.3014 19.9127 93.7172 19.3238 93.7172 18.4567V8.92268C93.7172 8.05553 94.3014 7.46667 95.1595 7.46667H101.49ZM113.997 7.46667C114.855 7.46667 115.439 8.05553 115.439 8.92268V18.4567C115.439 19.3238 114.855 19.9127 113.997 19.9127H107.666C106.808 19.9127 106.224 19.3238 106.224 18.4567V8.92268C106.224 8.05553 106.808 7.46667 107.666 7.46667H113.997ZM86.3747 10.1408H84.4774V17.221H86.3747C86.9041 17.221 87.2693 16.852 87.2693 16.3169V11.0433C87.2693 10.5083 86.9041 10.1408 86.3747 10.1408ZM52.0147 10.1588H49.515C49.442 10.1588 49.3507 10.2511 49.3507 10.3618V17.056C49.3507 17.1483 49.442 17.2205 49.515 17.2205H52.0147C52.1243 17.2205 52.2156 17.1483 52.2156 17.056V10.3618C52.2156 10.2511 52.1243 10.1588 52.0147 10.1588ZM99.5565 10.1588H97.0568C96.9838 10.1588 96.8925 10.2511 96.8925 10.3618V17.056C96.8925 17.1483 96.9838 17.2205 97.0568 17.2205H99.5565C99.6661 17.2205 99.7574 17.1483 99.7574 17.056V10.3618C99.7574 10.2511 99.6661 10.1588 99.5565 10.1588ZM112.063 10.1588H109.563C109.49 10.1588 109.399 10.2511 109.399 10.3618V17.056C109.399 17.1483 109.49 17.2205 109.563 17.2205H112.063C112.173 17.2205 112.264 17.1483 112.264 17.056V10.3618C112.264 10.2511 112.173 10.1588 112.063 10.1588ZM124.642 10.1396H122.015V13.459H124.642C124.715 13.459 124.806 13.3668 124.806 13.293V10.3241C124.806 10.2318 124.715 10.1396 124.642 10.1396Z" fill="#575445"/>
</svg>
