<svg width="64" height="64" viewBox="0 0 64 64" fill="none" xmlns="http://www.w3.org/2000/svg">
<path d="M0 32C0 14.3269 14.3269 0 32 0C49.6731 0 64 14.3269 64 32C64 49.6731 49.6731 64 32 64C14.3269 64 0 49.6731 0 32Z" fill="#575445"/>
<path d="M43.5267 21.9878H27.24C26.4933 20.3229 24.8133 19.1667 22.8533 19.1667C20.1467 19.213 18 21.3403 18 23.9764V40.0238C18 42.6598 20.1467 44.8334 22.8533 44.8334H22.9H43.5267C44.9267 44.8334 46 43.7235 46 42.3824V24.4851C46 23.0977 44.88 21.9878 43.5267 21.9878ZM18.9333 23.9764C18.9333 21.849 20.66 20.0917 22.8533 20.0917C25.0467 20.0917 26.7733 21.8028 26.7733 23.9764V37.2028C25.8867 36.0004 24.4867 35.2142 22.8533 35.2142C21.2667 35.2142 19.82 36.0004 18.9333 37.2028V23.9764ZM18.9333 40.07C18.9333 37.9427 20.66 36.1854 22.8533 36.1854C25.0467 36.1854 26.7733 37.8965 26.7733 40.07C26.7733 42.2436 25.0467 43.9547 22.8533 43.9547C20.66 43.9547 18.9333 42.1974 18.9333 40.07ZM45.0667 42.3824C45.0667 43.2148 44.3667 43.9085 43.5267 43.9085H25.7C26.9133 43.0298 27.7067 41.6424 27.7067 40.0238V23.9764C27.7067 23.6064 27.66 23.2364 27.5667 22.9127H43.5267C44.3667 22.9127 45.0667 23.6064 45.0667 24.4851V42.3824Z" fill="white"/>
</svg>
