<svg width="64" height="64" viewBox="0 0 64 64" fill="none" xmlns="http://www.w3.org/2000/svg">
<path d="M0 32C0 14.3269 14.3269 0 32 0C49.6731 0 64 14.3269 64 32C64 49.6731 49.6731 64 32 64C14.3269 64 0 49.6731 0 32Z" fill="#575445"/>
<path d="M32.7933 29.3201L32.877 29.326C32.9875 29.3423 33.092 29.394 33.1667 29.5049L37.9267 36.2508L39.14 34.3564C39.2333 34.2178 39.3733 34.1254 39.5133 34.1254C39.6533 34.1254 39.7933 34.1716 39.8867 34.3102L44.1333 40.4092H45.5333C45.8133 40.4092 46 40.594 46 40.8712C46 41.1485 45.8133 41.3333 45.5333 41.3333H18.4667C18.1867 41.3333 18 41.1485 18 40.8712C18 40.594 18.1867 40.4092 18.4667 40.4092H19.82L25 31.4917C25.0933 31.3531 25.2333 31.2607 25.42 31.2607C25.6067 31.2607 25.7467 31.3531 25.84 31.4917L28.3133 35.4653L32.42 29.5049C32.5133 29.4125 32.6533 29.3201 32.7933 29.3201ZM32.7467 30.66L28.5933 36.6204C28.5467 36.7128 28.36 36.8052 28.22 36.8052C28.08 36.8052 27.94 36.7128 27.8467 36.5742L25.42 32.6468L20.8933 40.4554H42.92L39.42 35.4653L38.2067 37.3597C38.1133 37.4983 37.9733 37.5907 37.8333 37.5907C37.6933 37.5907 37.5533 37.5445 37.46 37.4059L32.7467 30.66ZM41.3333 22.6666C43.0133 22.6666 44.3667 24.0066 44.3667 25.6699C44.3667 27.3333 43.0133 28.6732 41.3333 28.6732C39.6533 28.6732 38.3 27.3333 38.3 25.6699C38.3 24.0066 39.6533 22.6666 41.3333 22.6666ZM41.3333 23.5907C40.1667 23.5907 39.2333 24.5148 39.2333 25.6699C39.2333 26.825 40.1667 27.7491 41.3333 27.7491C42.5 27.7491 43.4333 26.825 43.4333 25.6699C43.4333 24.5148 42.5 23.5907 41.3333 23.5907Z" fill="white"/>
</svg>
