<svg width="64" height="64" viewBox="0 0 64 64" fill="none" xmlns="http://www.w3.org/2000/svg">
<path d="M0 32C0 14.3269 14.3269 0 32 0C49.6731 0 64 14.3269 64 32C64 49.6731 49.6731 64 32 64C14.3269 64 0 49.6731 0 32Z" fill="#575445"/>
<g clip-path="url(#clip0_1_111)">
<path d="M28.9667 18C31.9067 18 34.66 19.12 36.7133 21.22C40.9133 25.3733 41.0067 32.0933 37.04 36.3867L45.86 45.2067C46.0467 45.3933 46.0467 45.6733 45.86 45.86C45.7667 45.9533 45.6267 46 45.5333 46C45.44 46 45.3 45.9533 45.2067 45.86L36.3867 37.04C34.3333 38.9067 31.72 39.9333 28.9667 39.9333C26.0267 39.9333 23.2733 38.7667 21.22 36.7133C16.9267 32.4667 16.9267 25.4667 21.22 21.22C23.2733 19.12 26.0267 18 28.9667 18ZM28.9667 18.9333C26.3067 18.9333 23.7867 19.96 21.8733 21.8733C17.9533 25.7933 17.9533 32.14 21.8733 36.06C23.7867 37.9733 26.3067 39 28.9667 39C31.6733 39 34.1467 37.9267 36.06 36.06L36.2905 35.8219C39.9784 31.8871 39.9016 25.7149 36.06 21.8733C34.1467 19.96 31.6267 18.9333 28.9667 18.9333ZM28.9667 25.3267C32.1867 25.3267 34.7067 28.1267 34.8 28.2667C34.94 28.4533 34.94 28.7333 34.8 28.8733C34.7067 28.9667 32.1867 31.8133 28.9667 31.8133C25.7467 31.8133 23.2267 29.0133 23.1333 28.8733C22.9933 28.6867 22.9933 28.4533 23.1333 28.2667C23.2267 28.1733 25.7467 25.3267 28.9667 25.3267ZM28.9667 26.26C26.7733 26.26 24.86 27.8933 24.16 28.5933C24.86 29.2933 26.7733 30.9267 28.9667 30.9267C31.16 30.9267 33.0733 29.2933 33.7733 28.5933C33.0733 27.8933 31.16 26.26 28.9667 26.26ZM28.9667 27.5667C29.5267 27.5667 29.9933 28.0333 29.9933 28.5933C29.9933 29.1533 29.5267 29.62 28.9667 29.62C28.4067 29.62 27.94 29.1533 27.94 28.5933C27.94 28.0333 28.4067 27.5667 28.9667 27.5667Z" fill="white"/>
</g>
<defs>
<clipPath id="clip0_1_111">
<rect width="28" height="28" fill="white" transform="translate(18 18)"/>
</clipPath>
</defs>
</svg>
