<svg width="64" height="64" viewBox="0 0 64 64" fill="none" xmlns="http://www.w3.org/2000/svg">
<path d="M0 32C0 14.3269 14.3269 0 32 0C49.6731 0 64 14.3269 64 32C64 49.6731 49.6731 64 32 64C14.3269 64 0 49.6731 0 32Z" fill="#575445"/>
<path d="M44.5192 21.7333C44.2823 21.64 38.5946 19.8667 35.0872 21.6867C33.0966 22.7133 31.5798 24.16 30.8215 25.7467C30.5371 24.2533 29.7314 22.7133 28.499 21.3133C25.9396 18.42 19.9676 18 19.7306 18C19.4462 18 19.2566 18.1867 19.2092 18.42C19.2092 18.6533 18.6878 24.44 21.2947 27.38C23.1432 29.4333 25.4182 30.6 27.3141 30.6C28.1673 30.6 28.9256 30.3667 29.5418 29.9C28.8308 32.14 27.8355 37.3667 29.447 45.6267C29.4944 45.86 29.684 46 29.921 46C29.9684 46 29.9684 46 30.0157 46C30.2527 45.9533 30.4423 45.72 30.3949 45.44C28.4516 35.64 30.3949 30.2267 30.8215 29.2C31.5325 30.46 33.0492 31.1133 34.8976 31.1133C36.3196 31.1133 37.9311 30.74 39.4952 29.9C43.0025 28.1267 44.7562 22.5733 44.8036 22.34C44.8984 22.06 44.7562 21.8267 44.5192 21.7333ZM22.0056 26.7733C20.0624 24.6267 20.0624 20.38 20.1098 18.98C21.5317 19.12 25.8448 19.7733 27.7881 21.92C29.2574 23.5533 30.0631 25.56 29.9683 27.1467C29.921 27.94 29.5892 28.5933 29.1152 29.0133C27.5037 30.3667 24.3281 29.34 22.0056 26.7733ZM39.0686 29.06C35.9878 30.6467 32.5752 30.46 31.5798 28.64C31.2481 28.08 31.2481 27.38 31.4851 26.5867C31.959 25.0467 33.5231 23.46 35.5138 22.48C36.5091 21.9667 37.7415 21.78 38.9738 21.78C40.9645 21.78 42.9077 22.2467 43.7609 22.48C43.2869 23.8333 41.6754 27.7533 39.0686 29.06Z" fill="white"/>
</svg>
