<svg width="64" height="64" viewBox="0 0 64 64" fill="none" xmlns="http://www.w3.org/2000/svg">
<path d="M0 32C0 14.3269 14.3269 0 32 0C49.6731 0 64 14.3269 64 32C64 49.6731 49.6731 64 32 64C14.3269 64 0 49.6731 0 32Z" fill="#575445"/>
<path d="M41.8542 18C43.5042 18 44.8334 19.3953 44.8334 21.0698V39.7209C44.8334 39.814 44.8334 39.8605 44.7875 39.9535L41.4417 45.5349C41.2584 45.814 40.9834 46 40.6625 46C40.3417 46 40.0667 45.814 39.8834 45.5349L36.5375 39.9535C36.4917 39.907 36.4917 39.814 36.4917 39.7209V21.0698C36.4917 19.3953 37.8667 18 39.5167 18H41.8542ZM27.6459 18.093C28.8834 18.093 29.9375 19.1163 29.9375 20.4186V43.6279C29.9375 44.9302 28.9292 45.9535 27.6459 45.9535H21.4584C20.175 45.9535 19.1667 44.9302 19.1667 43.6279V20.4186C19.1667 19.1163 20.175 18.093 21.4584 18.093H27.6459ZM43.9167 23.9535H37.4084V39.5814L40.6625 45.0698L43.9167 39.5814V23.9535ZM27.6459 19.0233H21.4584C20.6792 19.0233 20.0834 19.6279 20.0834 20.4186V22.0465H24.025C24.3 22.0465 24.4834 22.2326 24.4834 22.5116C24.4834 22.7907 24.3 22.9767 24.025 22.9767H20.0834V26.6047H21.6417C21.9167 26.6047 22.1 26.7907 22.1 27.0698C22.1 27.3488 21.9167 27.5349 21.6417 27.5349H20.0834V31.1628H24.025C24.3 31.1628 24.4834 31.3488 24.4834 31.6279C24.4834 31.907 24.3 32.093 24.025 32.093H20.0834V35.7209H21.6417C21.9167 35.7209 22.1 35.907 22.1 36.186C22.1 36.4651 21.9167 36.6512 21.6417 36.6512H20.0834V40.2791H24.025C24.3 40.2791 24.4834 40.4651 24.4834 40.7442C24.4834 41.0233 24.3 41.2093 24.025 41.2093H20.0834V43.5814C20.0834 44.3721 20.6792 44.9767 21.4584 44.9767H27.6459C28.425 44.9767 29.0209 44.3721 29.0209 43.5814V20.4186C29.0209 19.6279 28.425 19.0233 27.6459 19.0233ZM41.8542 18.9302H39.5167C38.3709 18.9302 37.4084 19.907 37.4084 21.0698V23.0233H43.9167V21.0698C43.9167 19.907 43 18.9302 41.8542 18.9302Z" fill="white"/>
</svg>
