<svg width="64" height="64" viewBox="0 0 64 64" fill="none" xmlns="http://www.w3.org/2000/svg">
<path d="M0 32C0 14.3269 14.3269 0 32 0C49.6731 0 64 14.3269 64 32C64 49.6731 49.6731 64 32 64C14.3269 64 0 49.6731 0 32Z" fill="#575445"/>
<path d="M39.3804 20C39.6154 20 39.8034 20.14 39.8504 20.3733C40.2265 22.66 42.0128 24.4333 44.3163 24.8067C44.5043 24.8067 44.6923 25.04 44.8334 25.2733V29.5667C44.8334 33.58 43.5641 37.5 41.2607 40.8133C39.0043 44.0333 35.8547 46.5067 32.1881 47.9533C32.094 48 32.047 48 32 48C31.906 48 31.859 47.9533 31.812 47.9533C28.1453 46.5067 24.9957 44.0333 22.7393 40.8133C20.3889 37.5 19.1667 33.6267 19.1667 29.5667V25.2733C19.1667 25.04 19.3077 24.8533 19.5428 24.8067C21.7992 24.48 23.6325 22.6133 24.0086 20.3733C24.0556 20.1867 24.2436 20 24.4787 20H39.3804ZM38.9573 20.8867H24.8547C24.3376 23.2667 22.4573 25.0867 20.0598 25.6467V29.52C20.0598 33.3933 21.2351 37.08 23.4445 40.2533C25.5598 43.2867 28.4744 45.5733 31.906 46.9733C35.3376 45.62 38.2522 43.2867 40.3675 40.2533C42.5769 37.08 43.7522 33.3933 43.7522 29.52V25.6467C41.3547 25.0867 39.4744 23.2667 38.9573 20.8867ZM36.0428 29.7533C36.2308 29.5667 36.5598 29.6133 36.6539 29.8467C36.8419 30.0333 36.7949 30.36 36.6069 30.5L30.1667 35.68C30.1197 35.7267 29.9787 35.7733 29.8846 35.7733H29.8376C29.6966 35.7733 29.6026 35.68 29.5086 35.5867L27.0641 32.2267C26.9231 31.9933 26.9701 31.7133 27.1581 31.5733C27.3932 31.4333 27.6752 31.48 27.8163 31.6667L29.9787 34.6067L36.0428 29.7533Z" fill="white"/>
</svg>
