<svg width="20" height="10" viewBox="0 0 20 10" fill="none" xmlns="http://www.w3.org/2000/svg">
<path d="M18.6798 3.77312L15.2029 0.341984C14.7257 -0.102793 13.9758 -0.102793 13.4986 0.278444C13.0213 0.723221 13.0213 1.42216 13.4304 1.86693L15.4075 3.83666H1.22714C0.545396 3.83666 0 4.34498 0 4.98037C0 5.61577 0.545396 6.12409 1.22714 6.12409H15.4756L13.4986 8.09381C13.0213 8.53859 13.0895 9.23752 13.5667 9.6823C13.7713 9.87292 14.1121 10 14.3848 10C14.7257 10 14.9984 9.87292 15.2711 9.6823L18.748 6.25117C19.3616 5.48869 19.3616 4.47206 18.6798 3.77312Z" fill="#575445"/>
</svg>
